<svg width="130" height="137" viewBox="0 0 130 137" fill="none" xmlns="http://www.w3.org/2000/svg">
<path fill-rule="evenodd" clip-rule="evenodd" d="M61.1234 0.188605C42.8805 1.60983 25.8686 11.0178 14.2386 26.1175C-2.77108 48.2014 -4.72982 79.6382 9.38211 104.056C17.797 118.616 31.9089 129.884 47.5929 134.567C54.7871 136.715 56.9427 136.998 66.1004 137C75.6965 137.002 79.3497 136.455 86.796 133.901C103.19 128.279 117.325 115.778 124.827 100.269L126.318 97.185L119.988 93.4081C116.507 91.3303 110.725 87.8577 107.139 85.6909C103.553 83.5237 100.544 81.7507 100.452 81.7507C100.36 81.7507 100.183 82.3097 100.059 82.9934C99.2726 87.3308 95.3636 92.3895 91.2592 94.3812C87.5201 96.1958 85.1569 96.3415 61.8607 96.1912C38.0591 96.0379 38.8624 96.1274 34.5707 93.1549C31.6505 91.1323 29.2925 87.8619 28.2923 84.4467C27.5833 82.026 27.5472 81.0594 27.65 67.1912L27.7588 52.5003L28.9389 49.9159C30.3329 46.8643 33.127 43.6574 35.6166 42.2523C39.4283 40.1007 39.7819 40.0736 64.0834 40.0736C88.0698 40.0736 88.1067 40.0763 91.8907 42.0752C95.3905 43.9243 99.2217 49.0686 100.01 52.9782C100.148 53.6619 100.399 54.2209 100.567 54.2209C100.735 54.2209 105.575 51.4052 111.321 47.9636C125.656 39.3789 125.443 39.5146 125.558 38.8967C125.695 38.1618 121.857 31.477 119.024 27.5146C105.728 8.91595 83.5366 -1.55725 61.1234 0.188605ZM123.06 46.1871C119.309 48.4308 111.76 52.9507 106.285 56.2317L96.3313 62.1969L96.1308 58.1133C95.9685 54.8124 95.7459 53.616 94.9702 51.8701C93.8045 49.2479 91.7595 47.0516 89.3111 45.7929L87.4833 44.8531H63.8884H40.2936L38.4104 45.8835C37.3748 46.4502 35.7726 47.7846 34.8498 48.8487C32.0428 52.0869 31.9985 52.3905 31.9985 68.375V82.3934L33.1218 84.7247C34.4302 87.4402 36.1317 89.1176 38.9863 90.5063L41.0309 91.5008H63.7041C89.2529 91.5008 88.6055 91.5674 91.8546 88.6014C94.9676 85.7593 96.1352 82.671 96.1425 77.258C96.1451 75.5228 96.2322 74.1035 96.3357 74.1035C96.5271 74.1035 123.646 90.2628 127.598 92.7309C128.775 93.4669 129.813 93.9915 129.905 93.8975C129.995 93.803 130.027 82.1116 129.975 67.9166L129.88 42.1074L123.06 46.1871ZM75.5015 53.2986C75.5015 53.4225 74.1669 57.6808 72.5356 62.762L69.5696 72.0006L62.1206 78.3615C58.0236 81.8601 54.633 84.6876 54.5858 84.6452C54.5386 84.6023 55.8724 80.3016 57.5499 75.0873L60.5995 65.6068L67.7742 59.3693C74.5031 53.5196 75.5015 52.735 75.5015 53.2986ZM63.7225 67.3893C63.1389 68.1185 63.3693 69.914 64.1078 70.3931C65.7347 71.4492 67.6024 69.4426 66.6719 67.639C66.1856 66.6969 64.3979 66.5454 63.7225 67.3893Z" fill="#E4E4E4"/>
</svg>
